<svg width="109" height="90" viewBox="0 0 109 90" fill="none" xmlns="http://www.w3.org/2000/svg">
<mask id="path-1-outside-1_11_5" maskUnits="userSpaceOnUse" x="-3" y="-3" width="115" height="96" fill="black">
<rect fill="white" x="-3" y="-3" width="115" height="96"/>
<path d="M0.6 0.299993H18.384L50.52 30.564V54.12L20.256 25.572V90H0.6V0.299993ZM108.084 0.299993H90.456L58.164 30.564V54.12L88.428 25.572V90H108.084V0.299993Z"/>
</mask>
<path d="M0.6 0.299993H18.384L50.52 30.564V54.12L20.256 25.572V90H0.6V0.299993ZM108.084 0.299993H90.456L58.164 30.564V54.12L88.428 25.572V90H108.084V0.299993Z" fill="white"/>
<path d="M0.6 0.299993V-2.70001H-2.4V0.299993H0.6ZM18.384 0.299993L20.4408 -1.88398L19.5743 -2.70001H18.384V0.299993ZM50.52 30.564H53.52V29.2683L52.5768 28.38L50.52 30.564ZM50.52 54.12L48.4615 56.3023L53.52 61.074V54.12H50.52ZM20.256 25.572L22.3146 23.3897L17.256 18.618V25.572H20.256ZM20.256 90V93H23.256V90H20.256ZM0.6 90H-2.4V93H0.6V90ZM108.084 0.299993H111.084V-2.70001H108.084V0.299993ZM90.456 0.299993V-2.70001H89.2699L88.4045 -1.88895L90.456 0.299993ZM58.164 30.564L56.1125 28.3751L55.164 29.264V30.564H58.164ZM58.164 54.12H55.164V61.074L60.2226 56.3023L58.164 54.12ZM88.428 25.572H91.428V18.618L86.3695 23.3897L88.428 25.572ZM88.428 90H85.428V93H88.428V90ZM108.084 90V93H111.084V90H108.084ZM0.6 3.29999H18.384V-2.70001H0.6V3.29999ZM16.3272 2.48397L48.4632 32.748L52.5768 28.38L20.4408 -1.88398L16.3272 2.48397ZM47.52 30.564V54.12H53.52V30.564H47.52ZM52.5786 51.9377L22.3146 23.3897L18.1975 27.7543L48.4615 56.3023L52.5786 51.9377ZM17.256 25.572V90H23.256V25.572H17.256ZM20.256 87H0.6V93H20.256V87ZM3.6 90V0.299993H-2.4V90H3.6ZM108.084 -2.70001H90.456V3.29999H108.084V-2.70001ZM88.4045 -1.88895L56.1125 28.3751L60.2155 32.7529L92.5075 2.48893L88.4045 -1.88895ZM55.164 30.564V54.12H61.164V30.564H55.164ZM60.2226 56.3023L90.4866 27.7543L86.3695 23.3897L56.1055 51.9377L60.2226 56.3023ZM85.428 25.572V90H91.428V25.572H85.428ZM88.428 93H108.084V87H88.428V93ZM111.084 90V0.299993H105.084V90H111.084Z" fill="#EAB308" mask="url(#path-1-outside-1_11_5)"/>
</svg>
